<svg width="60" height="60" viewBox="0 0 60 60" fill="none" xmlns="http://www.w3.org/2000/svg">
<circle cx="30" cy="30" r="30" fill="#F7954E"/>
<path d="M32.1587 20.2854H24.1587C23.6283 20.2854 23.1196 20.4961 22.7445 20.8712C22.3694 21.2463 22.1587 21.755 22.1587 22.2854V38.2854C22.1587 38.8158 22.3694 39.3245 22.7445 39.6996C23.1196 40.0747 23.6283 40.2854 24.1587 40.2854H36.1587C36.6891 40.2854 37.1978 40.0747 37.5729 39.6996C37.948 39.3245 38.1587 38.8158 38.1587 38.2854V26.2854L32.1587 20.2854Z" stroke="white" stroke-width="2" stroke-linecap="round" stroke-linejoin="round"/>
<path d="M32.1587 20.2854V26.2854H38.1587" stroke="white" stroke-width="2" stroke-linecap="round" stroke-linejoin="round"/>
<path d="M34.1587 31.2854H26.1587" stroke="white" stroke-width="2" stroke-linecap="round" stroke-linejoin="round"/>
<path d="M34.1587 35.2854H26.1587" stroke="white" stroke-width="2" stroke-linecap="round" stroke-linejoin="round"/>
<path d="M28.1587 27.2854H27.1587H26.1587" stroke="white" stroke-width="2" stroke-linecap="round" stroke-linejoin="round"/>
</svg>
