<svg width="60" height="60" viewBox="0 0 60 60" fill="none" xmlns="http://www.w3.org/2000/svg">
<circle cx="30" cy="30" r="30" fill="#1F7CFF"/>
<path d="M39 29.5C39.0034 30.8199 38.6951 32.1219 38.1 33.3C37.3944 34.7118 36.3098 35.8992 34.9674 36.7293C33.6251 37.5594 32.0782 37.9994 30.5 38C29.1801 38.0035 27.8781 37.6951 26.7 37.1L21 39L22.9 33.3C22.3049 32.1219 21.9966 30.8199 22 29.5C22.0006 27.9218 22.4406 26.3749 23.2707 25.0326C24.1008 23.6903 25.2883 22.6056 26.7 21.9C27.8781 21.305 29.1801 20.9966 30.5 21H31C33.0843 21.115 35.053 21.9948 36.5291 23.4709C38.0052 24.947 38.885 26.9157 39 29V29.5Z" stroke="white" stroke-width="2" stroke-linecap="round" stroke-linejoin="round"/>
</svg>
