<svg width="22" height="28" viewBox="0 0 22 28" fill="none" xmlns="http://www.w3.org/2000/svg">
<path d="M20.8881 20.4567V24.3688C20.8892 24.732 20.8322 25.0915 20.7206 25.4243C20.6091 25.7571 20.4454 26.0558 20.2402 26.3013C20.035 26.5468 19.7927 26.7337 19.5289 26.8501C19.265 26.9664 18.9855 27.0097 18.7081 26.977C15.631 26.5409 12.6751 25.1697 10.0781 22.9735C7.66194 20.9713 5.61345 18.3 4.07812 15.1492C2.38809 11.7471 1.33636 7.87381 1.00812 3.84297C0.983127 3.48236 1.01599 3.11891 1.10462 2.77576C1.19324 2.43262 1.33569 2.1173 1.52288 1.84988C1.71008 1.58246 1.93792 1.3688 2.19191 1.2225C2.44589 1.0762 2.72046 1.00047 2.99812 1.00013H5.99812C6.48342 0.993898 6.95391 1.21801 7.32188 1.63068C7.68985 2.04336 7.93019 2.61644 7.99812 3.24311C8.12474 4.49509 8.35957 5.72437 8.69812 6.90751C8.83266 7.37426 8.86178 7.88153 8.78202 8.3692C8.70227 8.85688 8.51698 9.30451 8.24812 9.65907L6.97812 11.3152C8.40167 14.58 10.4746 17.2832 12.9781 19.1396L14.2481 17.4834C14.52 17.1328 14.8633 16.8912 15.2372 16.7872C15.6112 16.6832 16.0002 16.7211 16.3581 16.8966C17.2654 17.3381 18.2081 17.6443 19.1681 17.8094C19.6539 17.8988 20.0975 18.2179 20.4146 18.706C20.7318 19.1941 20.9003 19.8171 20.8881 20.4567Z" stroke="black" stroke-width="2" stroke-linecap="round" stroke-linejoin="round"/>
</svg>
