<svg width="24" height="26" viewBox="0 0 24 26" fill="none" xmlns="http://www.w3.org/2000/svg">
<path d="M23 1.01311C22.0424 1.89398 20.9821 2.5677 19.86 3.00833C19.2577 2.10528 18.4573 1.46522 17.567 1.17472C16.6767 0.88422 15.7395 0.957294 14.8821 1.38406C14.0247 1.81082 13.2884 2.57069 12.773 3.56088C12.2575 4.55107 11.9877 5.72382 12 6.92051V8.22457C10.2426 8.284 8.50127 7.77573 6.93101 6.74504C5.36074 5.71436 4.01032 4.19324 3 2.31717C3 2.31717 -1 14.0537 8 19.27C5.94053 21.093 3.48716 22.0071 1 21.8781C10 28.3984 21 21.8781 21 6.88139C20.9991 6.51815 20.9723 6.1558 20.92 5.79902C21.9406 4.48647 22.6608 2.8293 23 1.01311Z" stroke="black" stroke-width="2" stroke-linecap="round" stroke-linejoin="round"/>
</svg>
