<?xml version="1.0" standalone="no"?>
<!DOCTYPE svg PUBLIC "-//W3C//DTD SVG 20010904//EN"
 "http://www.w3.org/TR/2001/REC-SVG-20010904/DTD/svg10.dtd">
<svg version="1.0" xmlns="http://www.w3.org/2000/svg"
 width="234.000000pt" height="215.000000pt" viewBox="0 0 234.000000 215.000000"
 preserveAspectRatio="xMidYMid meet">
<metadata>
Created by potrace 1.16, written by Peter Selinger 2001-2019
</metadata>
<g transform="translate(0.000000,215.000000) scale(0.100000,-0.100000)"
fill="#000000" stroke="none">
<path d="M1125 2139 c-496 -62 -893 -481 -931 -981 l-7 -87 -89 -3 -88 -3 136
-165 c75 -91 139 -164 141 -163 2 1 65 75 139 165 l136 163 -91 3 -91 3 0 50
c0 27 7 84 16 126 90 437 481 737 923 710 267 -17 533 -168 676 -383 51 -76
109 -205 131 -289 26 -98 26 -322 0 -420 -67 -254 -237 -465 -473 -584 -147
-74 -347 -106 -511 -82 -218 32 -435 155 -561 317 -71 91 -87 104 -128 104
-25 0 -43 -8 -64 -29 -58 -58 -35 -115 105 -260 272 -282 678 -394 1057 -290
98 26 278 116 360 178 510 388 571 1126 132 1592 -92 97 -180 161 -308 224
-199 98 -392 131 -610 104z"/>
<path d="M1139 1711 l-29 -29 0 -342 c0 -370 2 -384 55 -408 41 -19 717 -17
754 3 54 27 65 111 19 151 -18 18 -45 19 -329 22 l-308 3 -3 290 -3 291 -28
24 c-40 34 -90 32 -128 -5z"/>
</g>
</svg>
