<svg width="150" height="173" viewBox="0 0 150 173" fill="none" xmlns="http://www.w3.org/2000/svg">
<path d="M81.25 14.4167H37.5C34.1848 14.4167 31.0054 15.9356 28.6612 18.6392C26.317 21.3429 25 25.0098 25 28.8334V144.167C25 147.99 26.317 151.657 28.6612 154.361C31.0054 157.064 34.1848 158.583 37.5 158.583H112.5C115.815 158.583 118.995 157.064 121.339 154.361C123.683 151.657 125 147.99 125 144.167V64.875L81.25 14.4167Z" stroke="black" stroke-width="2" stroke-linecap="round" stroke-linejoin="round"/>
<path d="M81.25 14.4167V64.875H125" stroke="black" stroke-width="2" stroke-linecap="round" stroke-linejoin="round"/>
<rect x="19" y="96" width="112" height="37" fill="#FF0202"/>
<path d="M69.248 113.288C69.248 113.885 69.104 114.445 68.816 114.968C68.5387 115.491 68.096 115.912 67.488 116.232C66.8907 116.552 66.1333 116.712 65.216 116.712H63.344V121H61.104V109.832H65.216C66.08 109.832 66.816 109.981 67.424 110.28C68.032 110.579 68.4853 110.989 68.784 111.512C69.0933 112.035 69.248 112.627 69.248 113.288ZM65.12 114.904C65.7387 114.904 66.1973 114.765 66.496 114.488C66.7947 114.2 66.944 113.8 66.944 113.288C66.944 112.2 66.336 111.656 65.12 111.656H63.344V114.904H65.12ZM74.7424 109.832C75.9157 109.832 76.945 110.061 77.8304 110.52C78.7264 110.979 79.4144 111.635 79.8944 112.488C80.385 113.331 80.6304 114.312 80.6304 115.432C80.6304 116.552 80.385 117.533 79.8944 118.376C79.4144 119.208 78.7264 119.853 77.8304 120.312C76.945 120.771 75.9157 121 74.7424 121H70.8384V109.832H74.7424ZM74.6624 119.096C75.8357 119.096 76.7424 118.776 77.3824 118.136C78.0224 117.496 78.3424 116.595 78.3424 115.432C78.3424 114.269 78.0224 113.363 77.3824 112.712C76.7424 112.051 75.8357 111.72 74.6624 111.72H73.0784V119.096H74.6624ZM89.2031 109.832V111.64H84.5471V114.504H88.1151V116.28H84.5471V121H82.3071V109.832H89.2031Z" fill="black"/>
</svg>
