<?xml version="1.0" standalone="no"?>
<!DOCTYPE svg PUBLIC "-//W3C//DTD SVG 20010904//EN"
 "http://www.w3.org/TR/2001/REC-SVG-20010904/DTD/svg10.dtd">
<svg version="1.0" xmlns="http://www.w3.org/2000/svg"
 width="225.000000pt" height="225.000000pt" viewBox="0 0 225.000000 225.000000"
 preserveAspectRatio="xMidYMid meet">
<metadata>
Created by potrace 1.16, written by Peter Selinger 2001-2019
</metadata>
<g transform="translate(0.000000,225.000000) scale(0.100000,-0.100000)"
fill="#000000" stroke="none">
<path d="M295 2041 c-48 -22 -69 -44 -90 -94 -13 -31 -15 -129 -15 -732 0
-664 1 -697 19 -733 23 -45 56 -77 94 -91 18 -7 141 -11 333 -11 l304 0 56
-45 c201 -164 481 -191 717 -68 98 50 220 172 270 270 123 236 96 516 -68 717
l-45 56 0 304 c0 192 -4 315 -11 333 -14 38 -46 71 -91 94 -36 18 -69 19 -735
19 -656 0 -700 -2 -738 -19z m645 -401 l0 -140 -285 0 -285 0 0 140 0 140 285
0 285 0 0 -140z m750 0 l0 -140 -285 0 -285 0 0 140 0 140 285 0 285 0 0 -140z
m-801 -396 c-53 -71 -79 -117 -98 -176 l-13 -38 -204 0 -204 0 0 140 0 140
285 0 284 0 -50 -66z m624 41 c139 -36 243 -122 303 -250 102 -214 21 -467
-187 -588 -122 -71 -282 -76 -414 -14 -184 88 -288 280 -258 477 41 265 303
441 556 375z m-756 -522 c7 -45 22 -108 33 -140 11 -31 20 -59 20 -60 0 -2
-98 -2 -217 -1 l-218 3 -3 129 c-1 72 0 136 2 143 4 11 44 13 188 11 l182 -3
13 -82z"/>
<path d="M1310 951 l0 -169 150 -87 c83 -48 152 -86 154 -84 1 2 17 29 35 61
l31 56 -115 67 -115 67 0 129 0 129 -70 0 -70 0 0 -169z"/>
</g>
</svg>
