<?xml version="1.0" standalone="yes"?>
<svg xmlns="http://www.w3.org/2000/svg" width="225" height="225">
<path style="fill:#ffffff; stroke:none;" d="M0 0L0 70L1 70C1.42588 49.4761 16.8862 36.9997 36 33.615C62.3807 28.9434 91.2687 32 118 32C142.438 32 169.031 29.054 193 34.4252C211.796 38.637 223.602 52.7172 224 72L225 72L225 0L0 0z"/>
<path style="fill:#a0a0a0; stroke:none;" d="M45 32L45 33L49 33L45 32z"/>
<path style="fill:#626262; stroke:none;" d="M49 32L49 33L52 33L49 32z"/>
<path style="fill:#353535; stroke:none;" d="M52 32L52 33L55 33L52 32z"/>
<path style="fill:#010101; stroke:none;" d="M55 32.4244C39.339 34.4807 21.9457 33.259 10.1852 46.0401C1.43149 55.5535 1.96512 67.0746 0.830247 79C-1.1113 99.402 -0.488659 120.588 0.910494 141C1.93416 155.934 3.8975 170.378 16.0008 180.79C29.8012 192.662 51.7434 193 69 193C107.878 193 149.595 197.189 188 190.715C233.088 183.113 228.368 118.602 224.285 84C222.685 70.4371 224.445 55.8325 213.895 45.0934C203.096 34.1013 187.165 34.1782 173 32.8302C150.569 30.6957 127.546 32 105 32C88.6473 32 71.2152 30.2953 55 32.4244z"/>
<path style="fill:#353535; stroke:none;" d="M170 32L170 33L173 33L170 32z"/>
<path style="fill:#626262; stroke:none;" d="M173 32L173 33L177 33L173 32z"/>
<path style="fill:#a0a0a0; stroke:none;" d="M177 32L177 33L181 33L177 32M36 33L36 34L39 34L36 33z"/>
<path style="fill:#626262; stroke:none;" d="M39 33L40 34L39 33z"/>
<path style="fill:#353535; stroke:none;" d="M40 33L41 34L40 33M184 33L185 34L184 33z"/>
<path style="fill:#626262; stroke:none;" d="M185.667 33.3333L186.333 33.6667L185.667 33.3333z"/>
<path style="fill:#a0a0a0; stroke:none;" d="M187.667 33.3333L188.333 33.6667L187.667 33.3333M31.6667 34.3333L32.3333 34.6667L31.6667 34.3333z"/>
<path style="fill:#626262; stroke:none;" d="M33 34L34 35L33 34M191 34L192 35L191 34z"/>
<path style="fill:#a0a0a0; stroke:none;" d="M192.667 34.3333L193.333 34.6667L192.667 34.3333M27.6667 35.3333L28.3333 35.6667L27.6667 35.3333z"/>
<path style="fill:#353535; stroke:none;" d="M29 35L30 36L29 35M195 35L196 36L195 35z"/>
<path style="fill:#a0a0a0; stroke:none;" d="M196.667 35.3333L197.333 35.6667L196.667 35.3333M24 36L25 37L24 36z"/>
<path style="fill:#626262; stroke:none;" d="M25 36L26 37L25 36M199 36L200 37L199 36z"/>
<path style="fill:#a0a0a0; stroke:none;" d="M200 36L201 37L200 36M22 37L23 38L22 37z"/>
<path style="fill:#353535; stroke:none;" d="M201 37L202 38L201 37z"/>
<path style="fill:#a0a0a0; stroke:none;" d="M202 37L203 38L202 37z"/>
<path style="fill:#626262; stroke:none;" d="M20 38L21 39L20 38M204 38L205 39L204 38M18 39L19 40L18 39M206 39L207 40L206 39z"/>
<path style="fill:#a0a0a0; stroke:none;" d="M16 40L17 41L16 40M208 40L209 41L208 40z"/>
<path style="fill:#353535; stroke:none;" d="M15 41L16 42L15 41M42.6667 41.3333L43.3333 41.6667L42.6667 41.3333z"/>
<path style="fill:#626262; stroke:none;" d="M44.6667 41.3333L45.3333 41.6667L44.6667 41.3333z"/>
<path style="fill:#a0a0a0; stroke:none;" d="M46 41L46 42L51 42L46 41z"/>
<path style="fill:#ffffff; stroke:none;" d="M51 41.4244C39.3669 42.9518 25.047 42.4948 16.5293 52.1852C9.81033 59.8292 9.04761 72.288 9.00077 82C8.89875 103.155 7.58315 124.975 9.8341 146C10.9247 156.187 12.8696 166.586 21.0401 173.671C33.9086 184.83 54.0506 184 70 184C108.052 184 149.472 188.564 187 181.916C225.923 175.021 216 118.936 216 90C216 77.6448 216.68 59.7167 206.699 50.6806C195.64 40.6683 176.02 41 162 41C125.89 41 86.7805 36.7263 51 41.4244z"/>
<path style="fill:#a0a0a0; stroke:none;" d="M173 41L173 42L180 42L173 41z"/>
<path style="fill:#626262; stroke:none;" d="M180 41L181 42L180 41z"/>
<path style="fill:#353535; stroke:none;" d="M181.667 41.3333L182.333 41.6667L181.667 41.3333M209 41L210 42L209 41z"/>
<path style="fill:#a0a0a0; stroke:none;" d="M13 42L14 43L13 42z"/>
<path style="fill:#626262; stroke:none;" d="M36 42L37 43L36 42z"/>
<path style="fill:#a0a0a0; stroke:none;" d="M37 42L37 43L40 43L37 42M185.667 42.3333L186.333 42.6667L185.667 42.3333z"/>
<path style="fill:#626262; stroke:none;" d="M187 42L188 43L187 42z"/>
<path style="fill:#353535; stroke:none;" d="M188 42L189 43L188 42z"/>
<path style="fill:#a0a0a0; stroke:none;" d="M211 42L212 43L211 42z"/>
<path style="fill:#626262; stroke:none;" d="M12 43L13 44L12 43z"/>
<path style="fill:#353535; stroke:none;" d="M31 43L32 44L31 43z"/>
<path style="fill:#a0a0a0; stroke:none;" d="M32.6667 43.3333L33.3333 43.6667L32.6667 43.3333M191 43L192 44L191 43z"/>
<path style="fill:#626262; stroke:none;" d="M192 43L193 44L192 43z"/>
<path style="fill:#353535; stroke:none;" d="M193 43L194 44L193 43z"/>
<path style="fill:#a0a0a0; stroke:none;" d="M212 43L213 44L212 43z"/>
<path style="fill:#626262; stroke:none;" d="M11 44L12 45L11 44z"/>
<path style="fill:#353535; stroke:none;" d="M28 44L29 45L28 44z"/>
<path style="fill:#a0a0a0; stroke:none;" d="M29 44L30 45L29 44M195 44L196 45L195 44z"/>
<path style="fill:#626262; stroke:none;" d="M196 44L197 45L196 44z"/>
<path style="fill:#a0a0a0; stroke:none;" d="M213 44L214 45L213 44z"/>
<path style="fill:#626262; stroke:none;" d="M10 45L11 46L10 45z"/>
<path style="fill:#353535; stroke:none;" d="M25 45L26 46L25 45z"/>
<path style="fill:#a0a0a0; stroke:none;" d="M26 45L27 46L26 45M198 45L199 46L198 45z"/>
<path style="fill:#353535; stroke:none;" d="M199 45L200 46L199 45z"/>
<path style="fill:#a0a0a0; stroke:none;" d="M214 45L215 46L214 45z"/>
<path style="fill:#626262; stroke:none;" d="M9 46L10 47L9 46z"/>
<path style="fill:#353535; stroke:none;" d="M23 46L24 47L23 46z"/>
<path style="fill:#a0a0a0; stroke:none;" d="M24 46L25 47L24 46M200 46L201 47L200 46z"/>
<path style="fill:#353535; stroke:none;" d="M201 46L202 47L201 46z"/>
<path style="fill:#a0a0a0; stroke:none;" d="M215 46L216 47L215 46M8 47L9 48L8 47z"/>
<path style="fill:#353535; stroke:none;" d="M21 47L22 48L21 47z"/>
<path style="fill:#a0a0a0; stroke:none;" d="M22 47L23 48L22 47M202 47L203 48L202 47z"/>
<path style="fill:#626262; stroke:none;" d="M20 48L21 49L20 48M204 48L205 49L204 48z"/>
<path style="fill:#353535; stroke:none;" d="M7 49L8 50L7 49z"/>
<path style="fill:#a0a0a0; stroke:none;" d="M19 49L20 50L19 49M205 49L206 50L205 49z"/>
<path style="fill:#626262; stroke:none;" d="M217 49L218 50L217 49z"/>
<path style="fill:#a0a0a0; stroke:none;" d="M6 50L7 51L6 50M206 50L207 51L206 50M218 50L219 51L218 50z"/>
<path style="fill:#353535; stroke:none;" d="M16 51L17 52L16 51M218 51L219 52L218 51z"/>
<path style="fill:#626262; stroke:none;" d="M5 52L6 53L5 52z"/>
<path style="fill:#a0a0a0; stroke:none;" d="M208 52L209 53L208 52M219 52L220 53L219 52M15 53L16 54L15 53M209 53L210 54L209 53z"/>
<path style="fill:#353535; stroke:none;" d="M219 53L220 54L219 53z"/>
<path style="fill:#a0a0a0; stroke:none;" d="M4 54L5 55L4 54z"/>
<path style="fill:#626262; stroke:none;" d="M14 54L15 55L14 54z"/>
<path style="fill:#353535; stroke:none;" d="M210 54L211 55L210 54z"/>
<path style="fill:#a0a0a0; stroke:none;" d="M220 54L221 55L220 54z"/>
<path style="fill:#626262; stroke:none;" d="M220 55L221 56L220 55z"/>
<path style="fill:#a0a0a0; stroke:none;" d="M3 56L4 57L3 56M13 56L14 57L13 56z"/>
<path style="fill:#626262; stroke:none;" d="M211 56L212 57L211 56M3 57L4 58L3 57z"/>
<path style="fill:#a0a0a0; stroke:none;" d="M221 57L222 58L221 57M12 58L13 59L12 58z"/>
<path style="fill:#626262; stroke:none;" d="M212 58L213 59L212 58z"/>
<path style="fill:#353535; stroke:none;" d="M221 58L222 59L221 58z"/>
<path style="fill:#a0a0a0; stroke:none;" d="M2 59L3 60L2 59M212 59L213 60L212 59z"/>
<path style="fill:#626262; stroke:none;" d="M2 60L3 61L2 60M11 60L12 61L11 60z"/>
<path style="fill:#a0a0a0; stroke:none;" d="M222 60L223 61L222 60M11 61L12 62L11 61z"/>
<path style="fill:#626262; stroke:none;" d="M213 61L214 62L213 61M222 61L223 62L222 61z"/>
<path style="fill:#a0a0a0; stroke:none;" d="M213 62L214 63L213 62z"/>
<path style="fill:#353535; stroke:none;" d="M222 62L223 63L222 62z"/>
<path style="fill:#a0a0a0; stroke:none;" d="M1.33333 63.6667L1.66667 64.3333L1.33333 63.6667z"/>
<path style="fill:#353535; stroke:none;" d="M10 63L11 64L10 63z"/>
<path style="fill:#626262; stroke:none;" d="M10 64L11 65L10 64M1 65L2 66L1 65z"/>
<path style="fill:#a0a0a0; stroke:none;" d="M10 65L11 66L10 65z"/>
<path style="fill:#626262; stroke:none;" d="M214 65L215 66L214 65z"/>
<path style="fill:#a0a0a0; stroke:none;" d="M223.333 65.6667L223.667 66.3333L223.333 65.6667z"/>
<path style="fill:#353535; stroke:none;" d="M1 66L2 67L1 66z"/>
<path style="fill:#a0a0a0; stroke:none;" d="M214.333 66.6667L214.667 67.3333L214.333 66.6667z"/>
<path style="fill:#626262; stroke:none;" d="M223 67L224 68L223 67z"/>
<path style="fill:#353535; stroke:none;" d="M9.33333 68.6667L9.66667 69.3333L9.33333 68.6667M223 68L224 69L223 68z"/>
<path style="fill:#a0a0a0; stroke:none;" d="M0 70L0 74L1 74L0 70z"/>
<path style="fill:#626262; stroke:none;" d="M9 70L10 71L9 70z"/>
<path style="fill:#353535; stroke:none;" d="M215 70L216 71L215 70z"/>
<path style="fill:#a0a0a0; stroke:none;" d="M9 71L9 75L10 75L9 71z"/>
<path style="fill:#626262; stroke:none;" d="M215.333 71.6667L215.667 72.3333L215.333 71.6667z"/>
<path style="fill:#a0a0a0; stroke:none;" d="M224 72L224 77L225 77L224 72M215 73L215 77L216 77L215 73z"/>
<path style="fill:#626262; stroke:none;" d="M0 74L0 78L1 78L0 74z"/>
<path style="fill:#a0a0a0; stroke:none;" d="M92 76L92 77L97 77L92 76z"/>
<path style="fill:#626262; stroke:none;" d="M90 77L91 78L90 77z"/>
<path style="fill:#010101; stroke:none;" d="M91.0154 77.6535C83.6151 80.0077 84.0004 87.6423 84 94C83.9991 107.583 80.7503 125.92 84.4336 138.985C86.1536 145.085 93.4646 147.002 99 145.351C112.381 141.36 125.502 131.512 138 125.247C143.118 122.681 149.245 120.197 150.602 113.996C151.74 108.797 149.234 104.287 144.957 101.468C133.558 93.9552 120.177 88.4183 108 82.2438C102.748 79.5808 97.1863 75.6905 91.0154 77.6535z"/>
<path style="fill:#353535; stroke:none;" d="M98 77L99 78L98 77z"/>
<path style="fill:#a0a0a0; stroke:none;" d="M99 77L100 78L99 77z"/>
<path style="fill:#626262; stroke:none;" d="M224 77L224 81L225 81L224 77z"/>
<path style="fill:#353535; stroke:none;" d="M0 78L0 82L1 82L0 78z"/>
<path style="fill:#626262; stroke:none;" d="M88 78L89 79L88 78z"/>
<path style="fill:#a0a0a0; stroke:none;" d="M101 78L102 79L101 78z"/>
<path style="fill:#353535; stroke:none;" d="M102 79L103 80L102 79z"/>
<path style="fill:#a0a0a0; stroke:none;" d="M103 79L104 80L103 79z"/>
<path style="fill:#353535; stroke:none;" d="M104 80L105 81L104 80z"/>
<path style="fill:#a0a0a0; stroke:none;" d="M105 80L106 81L105 80z"/>
<path style="fill:#353535; stroke:none;" d="M85 81L86 82L85 81M106 81L107 82L106 81z"/>
<path style="fill:#a0a0a0; stroke:none;" d="M107 81L108 82L107 81z"/>
<path style="fill:#353535; stroke:none;" d="M224 81L224 86L225 86L224 81z"/>
<path style="fill:#a0a0a0; stroke:none;" d="M84 82L85 83L84 82z"/>
<path style="fill:#626262; stroke:none;" d="M108 82L109 83L108 82z"/>
<path style="fill:#353535; stroke:none;" d="M84 83L85 84L84 83z"/>
<path style="fill:#626262; stroke:none;" d="M110 83L111 84L110 83M112 84L113 85L112 84z"/>
<path style="fill:#a0a0a0; stroke:none;" d="M83 85L84 86L83 85z"/>
<path style="fill:#626262; stroke:none;" d="M93 85L92 87L93 85z"/>
<path style="fill:#a0a0a0; stroke:none;" d="M94 85L95 86L94 85z"/>
<path style="fill:#626262; stroke:none;" d="M95 85L96 86L95 85M114 85L115 86L114 85M83 86L84 87L83 86z"/>
<path style="fill:#ffffff; stroke:none;" d="M93.6034 87.071C91.0445 88.8652 92.0002 94.3428 92 97L92 125C92 127.822 90.8931 134.029 93.6034 135.929C96.8544 138.208 103.159 133.718 106 132.219C116.359 126.754 130.983 121.897 139.663 114.038C144.312 109.828 135.882 106.738 133 105.139C123.441 99.8338 113.569 95.1493 104 89.8611C101.488 88.4726 96.5155 85.0291 93.6034 87.071z"/>
<path style="fill:#626262; stroke:none;" d="M97 86L98 87L97 86M116 86L117 87L116 86z"/>
<path style="fill:#353535; stroke:none;" d="M83 87L83 136L84 136C84 122.212 88.309 99.652 83 87z"/>
<path style="fill:#626262; stroke:none;" d="M99 87L100 88L99 87z"/>
<path style="fill:#a0a0a0; stroke:none;" d="M118 87L119 88L118 87z"/>
<path style="fill:#626262; stroke:none;" d="M101 88L102 89L101 88z"/>
<path style="fill:#a0a0a0; stroke:none;" d="M120 88L121 89L120 88z"/>
<path style="fill:#626262; stroke:none;" d="M103 89L104 90L103 89z"/>
<path style="fill:#a0a0a0; stroke:none;" d="M122 89L123 90L122 89z"/>
<path style="fill:#626262; stroke:none;" d="M105 90L106 91L105 90z"/>
<path style="fill:#a0a0a0; stroke:none;" d="M124 90L125 91L124 90M106 91L107 92L106 91z"/>
<path style="fill:#353535; stroke:none;" d="M107 91L108 92L107 91z"/>
<path style="fill:#a0a0a0; stroke:none;" d="M126 91L127 92L126 91M108 92L109 93L108 92z"/>
<path style="fill:#353535; stroke:none;" d="M109 92L110 93L109 92M127 92L128 93L127 92z"/>
<path style="fill:#a0a0a0; stroke:none;" d="M128 92L129 93L128 92M110 93L111 94L110 93z"/>
<path style="fill:#353535; stroke:none;" d="M111 93L112 94L111 93M129 93L130 94L129 93z"/>
<path style="fill:#a0a0a0; stroke:none;" d="M130 93L131 94L130 93M112 94L113 95L112 94z"/>
<path style="fill:#353535; stroke:none;" d="M131 94L132 95L131 94z"/>
<path style="fill:#a0a0a0; stroke:none;" d="M132 94L133 95L132 94M114 95L115 96L114 95z"/>
<path style="fill:#626262; stroke:none;" d="M133 95L134 96L133 95z"/>
<path style="fill:#a0a0a0; stroke:none;" d="M116 96L117 97L116 96z"/>
<path style="fill:#626262; stroke:none;" d="M135 96L136 97L135 96z"/>
<path style="fill:#a0a0a0; stroke:none;" d="M118 97L119 98L118 97z"/>
<path style="fill:#626262; stroke:none;" d="M137 97L138 98L137 97z"/>
<path style="fill:#a0a0a0; stroke:none;" d="M120 98L121 99L120 98z"/>
<path style="fill:#626262; stroke:none;" d="M139 98L140 99L139 98M122 99L123 100L122 99M141 99L142 100L141 99M124 100L125 101L124 100z"/>
<path style="fill:#a0a0a0; stroke:none;" d="M143 100L144 101L143 100z"/>
<path style="fill:#626262; stroke:none;" d="M126 101L127 102L126 101z"/>
<path style="fill:#a0a0a0; stroke:none;" d="M145 101L146 102L145 101z"/>
<path style="fill:#626262; stroke:none;" d="M128 102L129 103L128 102z"/>
<path style="fill:#353535; stroke:none;" d="M146 102L147 103L146 102z"/>
<path style="fill:#626262; stroke:none;" d="M130 103L131 104L130 103z"/>
<path style="fill:#a0a0a0; stroke:none;" d="M131 104L132 105L131 104z"/>
<path style="fill:#353535; stroke:none;" d="M132 104L133 105L132 104z"/>
<path style="fill:#a0a0a0; stroke:none;" d="M133 105L134 106L133 105z"/>
<path style="fill:#353535; stroke:none;" d="M134 105L135 106L134 105z"/>
<path style="fill:#626262; stroke:none;" d="M149 105L150 106L149 105z"/>
<path style="fill:#a0a0a0; stroke:none;" d="M135 106L136 107L135 106z"/>
<path style="fill:#353535; stroke:none;" d="M136 106L137 107L136 106z"/>
<path style="fill:#a0a0a0; stroke:none;" d="M137 107L138 108L137 107z"/>
<path style="fill:#626262; stroke:none;" d="M150 107L151 108L150 107z"/>
<path style="fill:#a0a0a0; stroke:none;" d="M139 108L140 109L139 108M141 109L142 110L141 109z"/>
<path style="fill:#353535; stroke:none;" d="M142 110L143 111L142 110z"/>
<path style="fill:#a0a0a0; stroke:none;" d="M151 110L151 113L152 113L151 110M142 111L143 112L142 111z"/>
<path style="fill:#353535; stroke:none;" d="M142 112L143 113L142 112z"/>
<path style="fill:#a0a0a0; stroke:none;" d="M141 113L142 114L141 113M139 114L140 115L139 114M137 115L138 116L137 115z"/>
<path style="fill:#626262; stroke:none;" d="M150 115L151 116L150 115z"/>
<path style="fill:#a0a0a0; stroke:none;" d="M135 116L136 117L135 116z"/>
<path style="fill:#353535; stroke:none;" d="M136 116L137 117L136 116z"/>
<path style="fill:#a0a0a0; stroke:none;" d="M133 117L134 118L133 117z"/>
<path style="fill:#353535; stroke:none;" d="M134 117L135 118L134 117z"/>
<path style="fill:#626262; stroke:none;" d="M149 117L150 118L149 117z"/>
<path style="fill:#a0a0a0; stroke:none;" d="M131 118L132 119L131 118z"/>
<path style="fill:#353535; stroke:none;" d="M132 118L133 119L132 118z"/>
<path style="fill:#626262; stroke:none;" d="M130 119L131 120L130 119M128 120L129 121L128 120z"/>
<path style="fill:#353535; stroke:none;" d="M146 120L147 121L146 120z"/>
<path style="fill:#626262; stroke:none;" d="M126 121L127 122L126 121z"/>
<path style="fill:#a0a0a0; stroke:none;" d="M145 121L146 122L145 121z"/>
<path style="fill:#626262; stroke:none;" d="M124 122L125 123L124 122z"/>
<path style="fill:#a0a0a0; stroke:none;" d="M143 122L144 123L143 122M122 123L123 124L122 123M141 123L142 124L141 123M120 124L121 125L120 124z"/>
<path style="fill:#626262; stroke:none;" d="M139 124L140 125L139 124z"/>
<path style="fill:#a0a0a0; stroke:none;" d="M118 125L119 126L118 125z"/>
<path style="fill:#626262; stroke:none;" d="M137 125L138 126L137 125z"/>
<path style="fill:#a0a0a0; stroke:none;" d="M116 126L117 127L116 126z"/>
<path style="fill:#626262; stroke:none;" d="M135 126L136 127L135 126z"/>
<path style="fill:#a0a0a0; stroke:none;" d="M114 127L115 128L114 127z"/>
<path style="fill:#353535; stroke:none;" d="M115 127L116 128L115 127z"/>
<path style="fill:#626262; stroke:none;" d="M133 127L134 128L133 127z"/>
<path style="fill:#a0a0a0; stroke:none;" d="M112 128L113 129L112 128z"/>
<path style="fill:#353535; stroke:none;" d="M113 128L114 129L113 128M131 128L132 129L131 128z"/>
<path style="fill:#a0a0a0; stroke:none;" d="M132 128L133 129L132 128M110 129L111 130L110 129z"/>
<path style="fill:#353535; stroke:none;" d="M111 129L112 130L111 129M129 129L130 130L129 129z"/>
<path style="fill:#a0a0a0; stroke:none;" d="M130 129L131 130L130 129z"/>
<path style="fill:#353535; stroke:none;" d="M109 130L110 131L109 130M127 130L128 131L127 130z"/>
<path style="fill:#a0a0a0; stroke:none;" d="M128 130L129 131L128 130z"/>
<path style="fill:#626262; stroke:none;" d="M107 131L108 132L107 131z"/>
<path style="fill:#a0a0a0; stroke:none;" d="M126 131L127 132L126 131z"/>
<path style="fill:#626262; stroke:none;" d="M105 132L106 133L105 132z"/>
<path style="fill:#a0a0a0; stroke:none;" d="M124 132L125 133L124 132z"/>
<path style="fill:#626262; stroke:none;" d="M103 133L104 134L103 133z"/>
<path style="fill:#a0a0a0; stroke:none;" d="M122 133L123 134L122 133z"/>
<path style="fill:#626262; stroke:none;" d="M101 134L102 135L101 134z"/>
<path style="fill:#a0a0a0; stroke:none;" d="M120 134L121 135L120 134M99 135L100 136L99 135z"/>
<path style="fill:#626262; stroke:none;" d="M118 135L119 136L118 135M83 136L84 137L83 136z"/>
<path style="fill:#a0a0a0; stroke:none;" d="M92 136L93 137L92 136M97 136L98 137L97 136z"/>
<path style="fill:#626262; stroke:none;" d="M116 136L117 137L116 136z"/>
<path style="fill:#353535; stroke:none;" d="M224 136L224 139L225 139L224 136M0 137L0 140L1 140L0 137z"/>
<path style="fill:#a0a0a0; stroke:none;" d="M83.3333 137.667L83.6667 138.333L83.3333 137.667z"/>
<path style="fill:#626262; stroke:none;" d="M93 137L94 138L93 137z"/>
<path style="fill:#a0a0a0; stroke:none;" d="M94.6667 137.333L95.3333 137.667L94.6667 137.333z"/>
<path style="fill:#626262; stroke:none;" d="M114 137L115 138L114 137M112 138L113 139L112 138z"/>
<path style="fill:#353535; stroke:none;" d="M110 139L111 140L110 139z"/>
<path style="fill:#626262; stroke:none;" d="M224 139L224 143L225 143L224 139M0 140L0 143L1 143L0 140z"/>
<path style="fill:#a0a0a0; stroke:none;" d="M84 140L85 141L84 140z"/>
<path style="fill:#353535; stroke:none;" d="M108 140L109 141L108 140z"/>
<path style="fill:#a0a0a0; stroke:none;" d="M109 140L110 141L109 140z"/>
<path style="fill:#353535; stroke:none;" d="M106 141L107 142L106 141z"/>
<path style="fill:#a0a0a0; stroke:none;" d="M107 141L108 142L107 141z"/>
<path style="fill:#353535; stroke:none;" d="M104 142L105 143L104 142z"/>
<path style="fill:#a0a0a0; stroke:none;" d="M105 142L106 143L105 142M215 142L215 146L216 146L215 142M0 143L0 148L1 148L0 143M9 143L9 147L10 147L9 143M103 143L104 144L103 143M224 143L224 147L225 147L224 143z"/>
<path style="fill:#353535; stroke:none;" d="M88 144L89 145L88 144z"/>
<path style="fill:#a0a0a0; stroke:none;" d="M101 144L102 145L101 144M89 145L90 146L89 145z"/>
<path style="fill:#353535; stroke:none;" d="M90 145L91 146L90 145z"/>
<path style="fill:#a0a0a0; stroke:none;" d="M99 145L100 146L99 145M92 146L92 147L97 147L92 146z"/>
<path style="fill:#626262; stroke:none;" d="M215.333 146.667L215.667 147.333L215.333 146.667M9 147L10 148L9 147z"/>
<path style="fill:#ffffff; stroke:none;" d="M224 147C223.852 164.904 214.247 182.146 197 188.561C179.402 195.107 159.415 193 141 193L76 193C60.1637 193 44.1741 193.726 29 188.302C11.9911 182.222 1.36958 165.811 1 148L0 148L0 225L225 225L225 171L224 147z"/>
<path style="fill:#353535; stroke:none;" d="M9 148L10 149L9 148M215 148L216 149L215 148M223.333 150.667L223.667 151.333L223.333 150.667M1 151L2 152L1 151z"/>
<path style="fill:#a0a0a0; stroke:none;" d="M214 151L214 154L215 154L214 151z"/>
<path style="fill:#626262; stroke:none;" d="M1 152L2 153L1 152z"/>
<path style="fill:#a0a0a0; stroke:none;" d="M10 152L11 153L10 152M223 152L223 155L224 155L223 152M1.33333 153.667L1.66667 154.333L1.33333 153.667z"/>
<path style="fill:#626262; stroke:none;" d="M10 153L11 154L10 153z"/>
<path style="fill:#353535; stroke:none;" d="M10 154L11 155L10 154M214 154L215 155L214 154z"/>
<path style="fill:#626262; stroke:none;" d="M2 157L3 158L2 157z"/>
<path style="fill:#a0a0a0; stroke:none;" d="M11 157L12 158L11 157M213 157L214 158L213 157z"/>
<path style="fill:#626262; stroke:none;" d="M222 157L223 158L222 157z"/>
<path style="fill:#a0a0a0; stroke:none;" d="M2 158L3 159L2 158z"/>
<path style="fill:#353535; stroke:none;" d="M11 158L12 159L11 158z"/>
<path style="fill:#626262; stroke:none;" d="M213 158L214 159L213 158z"/>
<path style="fill:#a0a0a0; stroke:none;" d="M222 158L223 159L222 158z"/>
<path style="fill:#353535; stroke:none;" d="M3 160L4 161L3 160z"/>
<path style="fill:#a0a0a0; stroke:none;" d="M12 160L13 161L12 160M212 160L213 161L212 160z"/>
<path style="fill:#626262; stroke:none;" d="M3 161L4 162L3 161z"/>
<path style="fill:#353535; stroke:none;" d="M12 161L13 162L12 161z"/>
<path style="fill:#626262; stroke:none;" d="M212 161L213 162L212 161M221 161L222 162L221 161z"/>
<path style="fill:#a0a0a0; stroke:none;" d="M3 162L4 163L3 162M221 162L222 163L221 162M13 163L14 164L13 163M211 163L212 164L211 163M4 164L5 165L4 164z"/>
<path style="fill:#353535; stroke:none;" d="M211 164L212 165L211 164z"/>
<path style="fill:#626262; stroke:none;" d="M220 164L221 165L220 164z"/>
<path style="fill:#a0a0a0; stroke:none;" d="M14 165L15 166L14 165M220 165L221 166L220 165z"/>
<path style="fill:#353535; stroke:none;" d="M5 166L6 167L5 166M210 166L211 167L210 166z"/>
<path style="fill:#a0a0a0; stroke:none;" d="M5 167L6 168L5 167z"/>
<path style="fill:#626262; stroke:none;" d="M15 167L16 168L15 167z"/>
<path style="fill:#a0a0a0; stroke:none;" d="M209 167L210 168L209 167z"/>
<path style="fill:#626262; stroke:none;" d="M219 167L220 168L219 167z"/>
<path style="fill:#353535; stroke:none;" d="M6 168L7 169L6 168z"/>
<path style="fill:#a0a0a0; stroke:none;" d="M16 168L17 169L16 168z"/>
<path style="fill:#353535; stroke:none;" d="M209 168L210 169L209 168z"/>
<path style="fill:#a0a0a0; stroke:none;" d="M6 169L7 170L6 169M208 169L209 170L208 169z"/>
<path style="fill:#626262; stroke:none;" d="M218 169L219 170L218 169z"/>
<path style="fill:#353535; stroke:none;" d="M7 170L8 171L7 170M17 170L18 171L17 170z"/>
<path style="fill:#a0a0a0; stroke:none;" d="M56 170L57 171L56 170z"/>
<path style="fill:#626262; stroke:none;" d="M57 170L57 171L130 171L107 170L57 170z"/>
<path style="fill:#a0a0a0; stroke:none;" d="M144.667 170.333L145.333 170.667L144.667 170.333z"/>
<path style="fill:#626262; stroke:none;" d="M146 170L146 171L151 171L146 170z"/>
<path style="fill:#a0a0a0; stroke:none;" d="M151 170L152 171L151 170M7 171L8 172L7 171z"/>
<path style="fill:#626262; stroke:none;" d="M18 171L19 172L18 171z"/>
<path style="fill:#010101; stroke:none;" d="M55.608 172.028C51.0505 175.733 58.0093 178.85 61.0008 178.981C78.2622 179.733 95.7205 179 113 179C117.541 179 127.824 180.889 131.238 177.258C137.407 170.699 121.61 171 119 171L73 171C68.7368 171 59.0767 169.208 55.608 172.028z"/>
<path style="fill:#626262; stroke:none;" d="M131 171L132 172L131 171z"/>
<path style="fill:#353535; stroke:none;" d="M143 171L144 172L143 171z"/>
<path style="fill:#010101; stroke:none;" d="M144.323 172.028C138.655 175.888 147.458 180.793 151.681 177.972C157.836 173.861 148.782 168.991 144.323 172.028z"/>
<path style="fill:#626262; stroke:none;" d="M217 171L218 172L217 171M8 172L9 173L8 172M19 172L20 173L19 172z"/>
<path style="fill:#a0a0a0; stroke:none;" d="M132 172L133 173L132 172z"/>
<path style="fill:#626262; stroke:none;" d="M142 172L143 173L142 172z"/>
<path style="fill:#353535; stroke:none;" d="M206 172L207 173L206 172z"/>
<path style="fill:#626262; stroke:none;" d="M20 173L21 174L20 173z"/>
<path style="fill:#a0a0a0; stroke:none;" d="M53 173L54 174L53 173M154 173L155 174L154 173z"/>
<path style="fill:#353535; stroke:none;" d="M205 173L206 174L205 173z"/>
<path style="fill:#a0a0a0; stroke:none;" d="M216 173L217 174L216 173M9 174L10 175L9 174z"/>
<path style="fill:#353535; stroke:none;" d="M21 174L22 175L21 174z"/>
<path style="fill:#626262; stroke:none;" d="M53 174L54 175L53 174z"/>
<path style="fill:#a0a0a0; stroke:none;" d="M141.333 174.667L141.667 175.333L141.333 174.667z"/>
<path style="fill:#626262; stroke:none;" d="M154 174L155 175L154 174z"/>
<path style="fill:#353535; stroke:none;" d="M204 174L205 175L204 174M215 174L216 175L215 174z"/>
<path style="fill:#a0a0a0; stroke:none;" d="M10 175L11 176L10 175M23 175L24 176L23 175M53.3333 175.667L53.6667 176.333L53.3333 175.667M154 175L155 176L154 175z"/>
<path style="fill:#626262; stroke:none;" d="M11 176L12 177L11 176M24 176L25 177L24 176M132 176L133 177L132 176z"/>
<path style="fill:#a0a0a0; stroke:none;" d="M201 176L202 177L201 176M214 176L215 177L214 176z"/>
<path style="fill:#353535; stroke:none;" d="M12 177L13 178L12 177z"/>
<path style="fill:#a0a0a0; stroke:none;" d="M26 177L27 178L26 177z"/>
<path style="fill:#626262; stroke:none;" d="M54 177L55 178L54 177z"/>
<path style="fill:#a0a0a0; stroke:none;" d="M142 177L143 178L142 177z"/>
<path style="fill:#626262; stroke:none;" d="M153 177L154 178L153 177z"/>
<path style="fill:#353535; stroke:none;" d="M200 177L201 178L200 177z"/>
<path style="fill:#626262; stroke:none;" d="M213 177L214 178L213 177z"/>
<path style="fill:#353535; stroke:none;" d="M13 178L14 179L13 178M27 178L28 179L27 178z"/>
<path style="fill:#a0a0a0; stroke:none;" d="M28 178L29 179L28 178z"/>
<path style="fill:#626262; stroke:none;" d="M55 178L56 179L55 178z"/>
<path style="fill:#353535; stroke:none;" d="M130 178L131 179L130 178z"/>
<path style="fill:#a0a0a0; stroke:none;" d="M143 178L144 179L143 178M152 178L153 179L152 178z"/>
<path style="fill:#626262; stroke:none;" d="M198 178L199 179L198 178M212 178L213 179L212 178z"/>
<path style="fill:#353535; stroke:none;" d="M14 179L15 180L14 179z"/>
<path style="fill:#a0a0a0; stroke:none;" d="M30 179L31 180L30 179M58 179L58 180L129 180L107 179L58 179M146 179L146 180L150 180L146 179M195 179L196 180L195 179z"/>
<path style="fill:#626262; stroke:none;" d="M196 179L197 180L196 179z"/>
<path style="fill:#353535; stroke:none;" d="M211 179L212 180L211 179z"/>
<path style="fill:#626262; stroke:none;" d="M15 180L16 181L15 180z"/>
<path style="fill:#353535; stroke:none;" d="M32 180L33 181L32 180z"/>
<path style="fill:#a0a0a0; stroke:none;" d="M33 180L34 181L33 180M193 180L194 181L193 180z"/>
<path style="fill:#626262; stroke:none;" d="M210 180L211 181L210 180z"/>
<path style="fill:#a0a0a0; stroke:none;" d="M16 181L17 182L16 181z"/>
<path style="fill:#353535; stroke:none;" d="M35 181L36 182L35 181z"/>
<path style="fill:#626262; stroke:none;" d="M36 181L37 182L36 181z"/>
<path style="fill:#a0a0a0; stroke:none;" d="M37 181L38 182L37 181M189 181L190 182L189 181z"/>
<path style="fill:#626262; stroke:none;" d="M190 181L191 182L190 181M209 181L210 182L209 181z"/>
<path style="fill:#a0a0a0; stroke:none;" d="M17 182L18 183L17 182z"/>
<path style="fill:#626262; stroke:none;" d="M40 182L41 183L40 182z"/>
<path style="fill:#a0a0a0; stroke:none;" d="M41.6667 182.333L42.3333 182.667L41.6667 182.333M183.667 182.333L184.333 182.667L183.667 182.333z"/>
<path style="fill:#626262; stroke:none;" d="M185 182L186 183L185 182z"/>
<path style="fill:#353535; stroke:none;" d="M186 182L187 183L186 182z"/>
<path style="fill:#a0a0a0; stroke:none;" d="M208 182L209 183L208 182z"/>
<path style="fill:#626262; stroke:none;" d="M19 183L20 184L19 183z"/>
<path style="fill:#353535; stroke:none;" d="M46 183L47 184L46 183z"/>
<path style="fill:#626262; stroke:none;" d="M47 183L48 184L47 183z"/>
<path style="fill:#a0a0a0; stroke:none;" d="M48 183L48 184L52 184L48 183M174 183L174 184L178 184L174 183z"/>
<path style="fill:#626262; stroke:none;" d="M178 183L179 184L178 183z"/>
<path style="fill:#353535; stroke:none;" d="M179.667 183.333L180.333 183.667L179.667 183.333z"/>
<path style="fill:#a0a0a0; stroke:none;" d="M20 184L21 185L20 184z"/>
<path style="fill:#353535; stroke:none;" d="M21 184L22 185L21 184z"/>
<path style="fill:#626262; stroke:none;" d="M205 184L206 185L205 184z"/>
<path style="fill:#a0a0a0; stroke:none;" d="M22 185L23 186L22 185z"/>
<path style="fill:#626262; stroke:none;" d="M203 185L204 186L203 185z"/>
<path style="fill:#a0a0a0; stroke:none;" d="M24 186L25 187L24 186z"/>
<path style="fill:#353535; stroke:none;" d="M201 186L202 187L201 186z"/>
<path style="fill:#a0a0a0; stroke:none;" d="M202 186L203 187L202 186M26 187L27 188L26 187z"/>
<path style="fill:#626262; stroke:none;" d="M27 187L28 188L27 187M199 187L200 188L199 187z"/>
<path style="fill:#a0a0a0; stroke:none;" d="M29 188L30 189L29 188z"/>
<path style="fill:#353535; stroke:none;" d="M30 188L31 189L30 188M196 188L197 189L196 188z"/>
<path style="fill:#a0a0a0; stroke:none;" d="M197 188L198 189L197 188M32 189L33 190L32 189z"/>
<path style="fill:#626262; stroke:none;" d="M33 189L34 190L33 189M193 189L194 190L193 189z"/>
<path style="fill:#a0a0a0; stroke:none;" d="M194 189L195 190L194 189M36 190L37 191L36 190z"/>
<path style="fill:#626262; stroke:none;" d="M37 190L38 191L37 190M189 190L190 191L189 190z"/>
<path style="fill:#a0a0a0; stroke:none;" d="M190 190L191 191L190 190M41.6667 191.333L42.3333 191.667L41.6667 191.333z"/>
<path style="fill:#626262; stroke:none;" d="M43 191L44 192L43 191z"/>
<path style="fill:#353535; stroke:none;" d="M44 191L45 192L44 191M182 191L183 192L182 191z"/>
<path style="fill:#626262; stroke:none;" d="M183 191L184 192L183 191z"/>
<path style="fill:#a0a0a0; stroke:none;" d="M184 191L184 192L187 192L184 191M48 192L48 193L52 193L48 192z"/>
<path style="fill:#626262; stroke:none;" d="M52.6667 192.333L53.3333 192.667L52.6667 192.333z"/>
<path style="fill:#353535; stroke:none;" d="M54 192L54 193L57 193L54 192M169 192L169 193L172 193L169 192z"/>
<path style="fill:#626262; stroke:none;" d="M172 192L172 193L175 193L172 192z"/>
<path style="fill:#a0a0a0; stroke:none;" d="M175 192L175 193L179 193L175 192z"/>
</svg>
