<?xml version="1.0" standalone="no"?>
<!DOCTYPE svg PUBLIC "-//W3C//DTD SVG 20010904//EN"
 "http://www.w3.org/TR/2001/REC-SVG-20010904/DTD/svg10.dtd">
<svg version="1.0" xmlns="http://www.w3.org/2000/svg"
 width="214.000000pt" height="236.000000pt" viewBox="0 0 214.000000 236.000000"
 preserveAspectRatio="xMidYMid meet">
<metadata>
Created by potrace 1.16, written by Peter Selinger 2001-2019
</metadata>
<g transform="translate(0.000000,236.000000) scale(0.100000,-0.100000)"
fill="#000000" stroke="none">
<path d="M66 2341 c-15 -10 -37 -32 -47 -47 -18 -28 -19 -68 -19 -1114 0
-1046 1 -1086 19 -1114 10 -15 32 -37 47 -47 28 -18 58 -19 629 -19 330 0 624
3 653 7 52 6 54 7 232 180 l180 175 0 534 c0 294 -4 534 -8 534 -4 0 -29 -22
-55 -48 l-47 -48 0 -464 1 -465 -153 -147 -153 -148 -617 0 -618 0 0 1070 0
1070 768 -2 767 -3 5 -298 5 -298 54 55 53 54 -7 262 -8 263 -26 29 c-18 20
-41 33 -71 39 -25 4 -385 8 -800 8 -723 1 -756 0 -784 -18z"/>
<path d="M410 2078 c-79 -54 -104 -148 -59 -227 31 -55 65 -75 134 -79 50 -3
66 0 94 20 54 37 74 71 79 135 3 48 0 64 -20 92 -37 54 -71 74 -135 79 -49 3
-64 0 -93 -20z m115 -74 c18 -7 45 -55 45 -79 0 -25 -46 -65 -75 -65 -33 0
-75 42 -75 75 0 49 58 87 105 69z"/>
<path d="M1635 1548 c-420 -415 -427 -422 -443 -401 -171 221 -188 237 -231
213 -43 -22 -28 -61 70 -182 119 -149 156 -188 176 -188 16 0 844 816 905 893
29 36 29 38 14 62 -10 15 -26 25 -40 25 -18 0 -131 -107 -451 -422z"/>
<path d="M930 1865 l0 -45 305 0 305 0 0 45 0 45 -305 0 -305 0 0 -45z"/>
<path d="M355 1723 c-83 -43 -111 -96 -121 -226 l-7 -97 262 0 261 0 0 95 c0
75 -4 104 -19 133 -42 81 -147 138 -180 98 -21 -26 -61 -28 -98 -6 -41 24 -58
24 -98 3z m155 -109 c25 3 59 8 77 12 26 5 34 2 48 -20 9 -14 19 -43 22 -65
l6 -40 -167 -3 -166 -3 0 35 c0 35 19 74 47 97 11 9 23 8 51 -4 24 -10 52 -13
82 -9z"/>
<path d="M220 765 l0 -45 655 0 c549 0 655 2 655 14 0 7 3 28 6 45 l7 31 -662
0 -661 0 0 -45z"/>
<path d="M220 440 l0 -50 661 0 660 0 -3 48 -3 47 -657 3 -658 2 0 -50z"/>
</g>
</svg>
